<mxfile host="app.diagrams.net" modified="2021-06-07T17:00:02.869Z" agent="5.0 (Windows NT 10.0; Win64; x64) AppleWebKit/537.36 (KHTML, like Gecko) Chrome/91.0.4472.77 Safari/537.36" etag="Y71LGxjO8WGV96O0jNSu" version="14.7.6" type="github">
  <diagram id="baFzMBZQvumeQl2_fwXA" name="Page-1">
    <mxGraphModel dx="9566" dy="1563" grid="1" gridSize="10" guides="1" tooltips="1" connect="1" arrows="1" fold="1" page="1" pageScale="1" pageWidth="3300" pageHeight="2339" math="0" shadow="0">
      <root>
        <mxCell id="0" />
        <mxCell id="1" parent="0" />
        <mxCell id="J2HJMgRs6SmeJb-_eaJ9-12" value="" style="rounded=1;whiteSpace=wrap;html=1;strokeColor=#36393d;fillColor=#EFFCD1;" parent="1" vertex="1">
          <mxGeometry x="-3798.5" y="1320" width="290" height="310" as="geometry" />
        </mxCell>
        <mxCell id="J2HJMgRs6SmeJb-_eaJ9-7" style="edgeStyle=orthogonalEdgeStyle;rounded=1;sketch=0;orthogonalLoop=1;jettySize=auto;html=1;exitX=0.5;exitY=1;exitDx=0;exitDy=0;entryX=0;entryY=0.5;entryDx=0;entryDy=0;shadow=0;strokeColor=#FF5724;" parent="1" source="FvHJdSDC7yqyWIZDWJ_g-79" target="J2HJMgRs6SmeJb-_eaJ9-3" edge="1">
          <mxGeometry relative="1" as="geometry">
            <Array as="points">
              <mxPoint x="-4206" y="1670" />
              <mxPoint x="-3990" y="1670" />
              <mxPoint x="-3990" y="1510" />
            </Array>
          </mxGeometry>
        </mxCell>
        <mxCell id="FvHJdSDC7yqyWIZDWJ_g-79" value="" style="rounded=1;whiteSpace=wrap;html=1;absoluteArcSize=1;arcSize=14;strokeWidth=2;fillColor=#f9f7ed;strokeColor=#36393d;" parent="1" vertex="1">
          <mxGeometry x="-4376" y="980" width="330" height="645" as="geometry" />
        </mxCell>
        <mxCell id="FvHJdSDC7yqyWIZDWJ_g-3" style="edgeStyle=orthogonalEdgeStyle;rounded=1;orthogonalLoop=1;jettySize=auto;html=1;exitX=0.5;exitY=1;exitDx=0;exitDy=0;" parent="1" source="uCSQ6clWTxPqFR-X0H4s-1" target="FvHJdSDC7yqyWIZDWJ_g-1" edge="1">
          <mxGeometry relative="1" as="geometry" />
        </mxCell>
        <mxCell id="FvHJdSDC7yqyWIZDWJ_g-7" style="edgeStyle=orthogonalEdgeStyle;rounded=0;orthogonalLoop=1;jettySize=auto;html=1;exitX=0.5;exitY=1;exitDx=0;exitDy=0;" parent="1" source="uCSQ6clWTxPqFR-X0H4s-1" target="FvHJdSDC7yqyWIZDWJ_g-5" edge="1">
          <mxGeometry relative="1" as="geometry" />
        </mxCell>
        <mxCell id="uCSQ6clWTxPqFR-X0H4s-1" value="&lt;font face=&quot;Consolas&quot; style=&quot;font-size: 17px&quot;&gt;&lt;span style=&quot;color: rgb(16 , 201 , 151)&quot;&gt;VkInstance&lt;/span&gt;&lt;br&gt;&lt;span&gt;&lt;font color=&quot;#1a1a1a&quot; style=&quot;font-size: 17px&quot;&gt;instance&lt;/font&gt;&lt;/span&gt;&lt;br&gt;&lt;/font&gt;" style="rounded=1;whiteSpace=wrap;html=1;" parent="1" vertex="1">
          <mxGeometry x="-3776" y="60" width="120" height="50" as="geometry" />
        </mxCell>
        <mxCell id="FvHJdSDC7yqyWIZDWJ_g-108" style="edgeStyle=orthogonalEdgeStyle;rounded=1;sketch=0;orthogonalLoop=1;jettySize=auto;html=1;exitX=0.5;exitY=1;exitDx=0;exitDy=0;shadow=0;strokeColor=#000000;entryX=0.5;entryY=0;entryDx=0;entryDy=0;" parent="1" source="FvHJdSDC7yqyWIZDWJ_g-1" target="FvHJdSDC7yqyWIZDWJ_g-11" edge="1">
          <mxGeometry relative="1" as="geometry">
            <mxPoint x="-3606" y="480" as="targetPoint" />
            <Array as="points">
              <mxPoint x="-3606" y="560" />
              <mxPoint x="-3641" y="560" />
            </Array>
          </mxGeometry>
        </mxCell>
        <mxCell id="FvHJdSDC7yqyWIZDWJ_g-1" value="&lt;font face=&quot;Consolas&quot;&gt;&lt;font color=&quot;#10c997&quot;&gt;&lt;span style=&quot;font-size: 17px&quot;&gt;VkSurfaceKHR&lt;/span&gt;&lt;/font&gt;&lt;br&gt;&lt;font color=&quot;#1a1a1a&quot;&gt;&lt;span style=&quot;font-size: 17px&quot;&gt;surface&lt;/span&gt;&lt;/font&gt;&lt;br&gt;&lt;/font&gt;" style="rounded=1;whiteSpace=wrap;html=1;" parent="1" vertex="1">
          <mxGeometry x="-3671" y="220" width="130" height="50" as="geometry" />
        </mxCell>
        <mxCell id="FvHJdSDC7yqyWIZDWJ_g-4" value="" style="edgeStyle=orthogonalEdgeStyle;rounded=1;orthogonalLoop=1;jettySize=auto;exitX=0.5;exitY=1;exitDx=0;exitDy=0;entryX=0.5;entryY=0;entryDx=0;entryDy=0;html=1;labelPosition=center;verticalLabelPosition=bottom;align=center;verticalAlign=top;textDirection=ltr;" parent="1" source="FvHJdSDC7yqyWIZDWJ_g-2" target="FvHJdSDC7yqyWIZDWJ_g-1" edge="1">
          <mxGeometry relative="1" as="geometry" />
        </mxCell>
        <mxCell id="FvHJdSDC7yqyWIZDWJ_g-19" value="&lt;font face=&quot;Consolas&quot; color=&quot;#cfcf00&quot;&gt;glfwCreateWindowSurface&lt;/font&gt;" style="edgeLabel;html=1;align=center;verticalAlign=middle;resizable=0;points=[];" parent="FvHJdSDC7yqyWIZDWJ_g-4" vertex="1" connectable="0">
          <mxGeometry x="0.1239" y="1" relative="1" as="geometry">
            <mxPoint x="-35" y="24" as="offset" />
          </mxGeometry>
        </mxCell>
        <mxCell id="FvHJdSDC7yqyWIZDWJ_g-2" value="&lt;font face=&quot;Consolas&quot;&gt;&lt;font color=&quot;#10c997&quot;&gt;&lt;span style=&quot;font-size: 17px&quot;&gt;GLFWwindow*&lt;/span&gt;&lt;/font&gt;&lt;br&gt;&lt;font color=&quot;#1a1a1a&quot;&gt;&lt;span style=&quot;font-size: 17px&quot;&gt;window&lt;/span&gt;&lt;/font&gt;&lt;br&gt;&lt;/font&gt;" style="rounded=1;whiteSpace=wrap;html=1;" parent="1" vertex="1">
          <mxGeometry x="-3561" y="60" width="120" height="50" as="geometry" />
        </mxCell>
        <mxCell id="FvHJdSDC7yqyWIZDWJ_g-9" style="edgeStyle=orthogonalEdgeStyle;rounded=0;orthogonalLoop=1;jettySize=auto;html=1;exitX=0.5;exitY=1;exitDx=0;exitDy=0;entryX=0.5;entryY=0;entryDx=0;entryDy=0;" parent="1" source="FvHJdSDC7yqyWIZDWJ_g-5" target="FvHJdSDC7yqyWIZDWJ_g-6" edge="1">
          <mxGeometry relative="1" as="geometry" />
        </mxCell>
        <mxCell id="FvHJdSDC7yqyWIZDWJ_g-5" value="&lt;font face=&quot;Consolas&quot;&gt;&lt;font color=&quot;#10c997&quot;&gt;&lt;span style=&quot;font-size: 17px&quot;&gt;VkPhysicalDevice&lt;/span&gt;&lt;/font&gt;&lt;br&gt;&lt;font color=&quot;#1a1a1a&quot;&gt;&lt;span style=&quot;font-size: 17px&quot;&gt;physicalDevice&lt;/span&gt;&lt;/font&gt;&lt;br&gt;&lt;/font&gt;" style="rounded=1;whiteSpace=wrap;html=1;" parent="1" vertex="1">
          <mxGeometry x="-3801" y="330" width="170" height="50" as="geometry" />
        </mxCell>
        <mxCell id="FvHJdSDC7yqyWIZDWJ_g-13" style="edgeStyle=orthogonalEdgeStyle;rounded=1;orthogonalLoop=1;jettySize=auto;html=1;exitX=0.5;exitY=1;exitDx=0;exitDy=0;entryX=0.5;entryY=0;entryDx=0;entryDy=0;" parent="1" source="FvHJdSDC7yqyWIZDWJ_g-6" target="FvHJdSDC7yqyWIZDWJ_g-10" edge="1">
          <mxGeometry relative="1" as="geometry">
            <Array as="points">
              <mxPoint x="-3716" y="530" />
              <mxPoint x="-3990" y="530" />
            </Array>
          </mxGeometry>
        </mxCell>
        <mxCell id="FvHJdSDC7yqyWIZDWJ_g-14" style="edgeStyle=orthogonalEdgeStyle;rounded=1;orthogonalLoop=1;jettySize=auto;html=1;exitX=0.5;exitY=1;exitDx=0;exitDy=0;entryX=0.5;entryY=0;entryDx=0;entryDy=0;" parent="1" source="FvHJdSDC7yqyWIZDWJ_g-6" target="FvHJdSDC7yqyWIZDWJ_g-12" edge="1">
          <mxGeometry relative="1" as="geometry">
            <Array as="points">
              <mxPoint x="-3716" y="530" />
              <mxPoint x="-3831" y="530" />
            </Array>
          </mxGeometry>
        </mxCell>
        <mxCell id="FvHJdSDC7yqyWIZDWJ_g-47" style="edgeStyle=orthogonalEdgeStyle;rounded=1;orthogonalLoop=1;jettySize=auto;html=1;exitX=0.5;exitY=1;exitDx=0;exitDy=0;" parent="1" source="FvHJdSDC7yqyWIZDWJ_g-6" target="FvHJdSDC7yqyWIZDWJ_g-41" edge="1">
          <mxGeometry relative="1" as="geometry">
            <Array as="points">
              <mxPoint x="-3716" y="530" />
              <mxPoint x="-3230" y="530" />
              <mxPoint x="-3230" y="1010" />
              <mxPoint x="-3537" y="1010" />
            </Array>
          </mxGeometry>
        </mxCell>
        <mxCell id="FvHJdSDC7yqyWIZDWJ_g-59" style="edgeStyle=orthogonalEdgeStyle;rounded=1;orthogonalLoop=1;jettySize=auto;html=1;exitX=0.5;exitY=1;exitDx=0;exitDy=0;entryX=0.5;entryY=0;entryDx=0;entryDy=0;" parent="1" source="FvHJdSDC7yqyWIZDWJ_g-6" target="FvHJdSDC7yqyWIZDWJ_g-11" edge="1">
          <mxGeometry relative="1" as="geometry">
            <Array as="points">
              <mxPoint x="-3716" y="530" />
              <mxPoint x="-3671" y="530" />
              <mxPoint x="-3671" y="560" />
              <mxPoint x="-3641" y="560" />
            </Array>
          </mxGeometry>
        </mxCell>
        <mxCell id="FvHJdSDC7yqyWIZDWJ_g-60" style="edgeStyle=orthogonalEdgeStyle;rounded=1;orthogonalLoop=1;jettySize=auto;html=1;exitX=0.5;exitY=1;exitDx=0;exitDy=0;entryX=0.5;entryY=0;entryDx=0;entryDy=0;" parent="1" source="FvHJdSDC7yqyWIZDWJ_g-6" target="FvHJdSDC7yqyWIZDWJ_g-29" edge="1">
          <mxGeometry relative="1" as="geometry">
            <Array as="points">
              <mxPoint x="-3716" y="530" />
              <mxPoint x="-3511" y="530" />
              <mxPoint x="-3511" y="680" />
              <mxPoint x="-3641" y="680" />
            </Array>
          </mxGeometry>
        </mxCell>
        <mxCell id="FvHJdSDC7yqyWIZDWJ_g-61" style="edgeStyle=orthogonalEdgeStyle;rounded=1;orthogonalLoop=1;jettySize=auto;html=1;exitX=0.5;exitY=1;exitDx=0;exitDy=0;entryX=0.5;entryY=0;entryDx=0;entryDy=0;" parent="1" source="FvHJdSDC7yqyWIZDWJ_g-6" target="FvHJdSDC7yqyWIZDWJ_g-32" edge="1">
          <mxGeometry relative="1" as="geometry">
            <Array as="points">
              <mxPoint x="-3716" y="530" />
              <mxPoint x="-3441" y="530" />
              <mxPoint x="-3441" y="840" />
              <mxPoint x="-3641" y="840" />
            </Array>
          </mxGeometry>
        </mxCell>
        <mxCell id="FvHJdSDC7yqyWIZDWJ_g-62" style="edgeStyle=orthogonalEdgeStyle;rounded=1;orthogonalLoop=1;jettySize=auto;html=1;exitX=0.5;exitY=1;exitDx=0;exitDy=0;" parent="1" source="FvHJdSDC7yqyWIZDWJ_g-6" target="FvHJdSDC7yqyWIZDWJ_g-39" edge="1">
          <mxGeometry relative="1" as="geometry">
            <Array as="points">
              <mxPoint x="-3716" y="530" />
              <mxPoint x="-3350" y="530" />
            </Array>
          </mxGeometry>
        </mxCell>
        <mxCell id="FvHJdSDC7yqyWIZDWJ_g-64" style="edgeStyle=orthogonalEdgeStyle;rounded=1;orthogonalLoop=1;jettySize=auto;html=1;exitX=0.5;exitY=1;exitDx=0;exitDy=0;entryX=0.5;entryY=0;entryDx=0;entryDy=0;" parent="1" source="FvHJdSDC7yqyWIZDWJ_g-6" target="FvHJdSDC7yqyWIZDWJ_g-40" edge="1">
          <mxGeometry relative="1" as="geometry">
            <Array as="points">
              <mxPoint x="-3716" y="530" />
              <mxPoint x="-1440" y="530" />
              <mxPoint x="-1440" y="890" />
              <mxPoint x="-1660" y="890" />
            </Array>
          </mxGeometry>
        </mxCell>
        <mxCell id="FvHJdSDC7yqyWIZDWJ_g-71" style="edgeStyle=orthogonalEdgeStyle;rounded=1;orthogonalLoop=1;jettySize=auto;html=1;exitX=0.5;exitY=1;exitDx=0;exitDy=0;entryX=0.5;entryY=0;entryDx=0;entryDy=0;" parent="1" source="FvHJdSDC7yqyWIZDWJ_g-6" target="FvHJdSDC7yqyWIZDWJ_g-53" edge="1">
          <mxGeometry relative="1" as="geometry">
            <Array as="points">
              <mxPoint x="-3716" y="530" />
              <mxPoint x="-4213" y="530" />
            </Array>
          </mxGeometry>
        </mxCell>
        <mxCell id="FvHJdSDC7yqyWIZDWJ_g-72" style="edgeStyle=orthogonalEdgeStyle;rounded=1;orthogonalLoop=1;jettySize=auto;html=1;exitX=0.5;exitY=1;exitDx=0;exitDy=0;entryX=0.5;entryY=0;entryDx=0;entryDy=0;" parent="1" source="FvHJdSDC7yqyWIZDWJ_g-6" target="FvHJdSDC7yqyWIZDWJ_g-66" edge="1">
          <mxGeometry relative="1" as="geometry">
            <Array as="points">
              <mxPoint x="-3716" y="530" />
              <mxPoint x="-3112" y="530" />
            </Array>
          </mxGeometry>
        </mxCell>
        <mxCell id="FvHJdSDC7yqyWIZDWJ_g-73" style="edgeStyle=orthogonalEdgeStyle;rounded=1;orthogonalLoop=1;jettySize=auto;html=1;exitX=0.5;exitY=1;exitDx=0;exitDy=0;entryX=0.5;entryY=0;entryDx=0;entryDy=0;" parent="1" source="FvHJdSDC7yqyWIZDWJ_g-6" target="FvHJdSDC7yqyWIZDWJ_g-67" edge="1">
          <mxGeometry relative="1" as="geometry">
            <Array as="points">
              <mxPoint x="-3716" y="530" />
              <mxPoint x="-2925" y="530" />
            </Array>
          </mxGeometry>
        </mxCell>
        <mxCell id="FvHJdSDC7yqyWIZDWJ_g-78" style="edgeStyle=orthogonalEdgeStyle;rounded=1;orthogonalLoop=1;jettySize=auto;html=1;exitX=0.5;exitY=1;exitDx=0;exitDy=0;entryX=0.5;entryY=0;entryDx=0;entryDy=0;" parent="1" source="FvHJdSDC7yqyWIZDWJ_g-6" target="FvHJdSDC7yqyWIZDWJ_g-70" edge="1">
          <mxGeometry relative="1" as="geometry">
            <Array as="points">
              <mxPoint x="-3716" y="530" />
              <mxPoint x="-4090" y="530" />
              <mxPoint x="-4090" y="710" />
              <mxPoint x="-4212" y="710" />
            </Array>
          </mxGeometry>
        </mxCell>
        <mxCell id="FvHJdSDC7yqyWIZDWJ_g-101" style="edgeStyle=orthogonalEdgeStyle;rounded=1;sketch=0;orthogonalLoop=1;jettySize=auto;html=1;exitX=0.5;exitY=1;exitDx=0;exitDy=0;entryX=0.5;entryY=0;entryDx=0;entryDy=0;shadow=0;strokeColor=#000000;" parent="1" source="FvHJdSDC7yqyWIZDWJ_g-6" target="FvHJdSDC7yqyWIZDWJ_g-68" edge="1">
          <mxGeometry relative="1" as="geometry">
            <Array as="points">
              <mxPoint x="-3716" y="530" />
              <mxPoint x="-2730" y="530" />
            </Array>
          </mxGeometry>
        </mxCell>
        <mxCell id="FvHJdSDC7yqyWIZDWJ_g-102" style="edgeStyle=orthogonalEdgeStyle;rounded=1;sketch=0;orthogonalLoop=1;jettySize=auto;html=1;exitX=0.5;exitY=1;exitDx=0;exitDy=0;shadow=0;strokeColor=#000000;" parent="1" source="FvHJdSDC7yqyWIZDWJ_g-6" target="FvHJdSDC7yqyWIZDWJ_g-69" edge="1">
          <mxGeometry relative="1" as="geometry">
            <Array as="points">
              <mxPoint x="-3716" y="530" />
              <mxPoint x="-2552" y="530" />
            </Array>
          </mxGeometry>
        </mxCell>
        <mxCell id="J2HJMgRs6SmeJb-_eaJ9-6" style="edgeStyle=orthogonalEdgeStyle;rounded=1;sketch=0;orthogonalLoop=1;jettySize=auto;html=1;exitX=0.25;exitY=1;exitDx=0;exitDy=0;shadow=0;strokeColor=#FF5724;entryX=0;entryY=0.5;entryDx=0;entryDy=0;" parent="1" source="FvHJdSDC7yqyWIZDWJ_g-6" target="J2HJMgRs6SmeJb-_eaJ9-2" edge="1">
          <mxGeometry relative="1" as="geometry">
            <mxPoint x="-3740.333333333333" y="690" as="targetPoint" />
            <Array as="points">
              <mxPoint x="-3740" y="690" />
              <mxPoint x="-3880" y="690" />
              <mxPoint x="-3880" y="1370" />
            </Array>
          </mxGeometry>
        </mxCell>
        <mxCell id="E67KO1QZ1ISF3svEd59q-3" style="edgeStyle=orthogonalEdgeStyle;rounded=1;orthogonalLoop=1;jettySize=auto;html=1;exitX=0.5;exitY=1;exitDx=0;exitDy=0;entryX=0.5;entryY=0;entryDx=0;entryDy=0;" edge="1" parent="1" source="FvHJdSDC7yqyWIZDWJ_g-6" target="E67KO1QZ1ISF3svEd59q-1">
          <mxGeometry relative="1" as="geometry">
            <Array as="points">
              <mxPoint x="-3716" y="530" />
              <mxPoint x="-1660" y="530" />
            </Array>
          </mxGeometry>
        </mxCell>
        <mxCell id="E67KO1QZ1ISF3svEd59q-6" style="edgeStyle=orthogonalEdgeStyle;rounded=1;orthogonalLoop=1;jettySize=auto;html=1;exitX=0.5;exitY=1;exitDx=0;exitDy=0;entryX=0.5;entryY=0;entryDx=0;entryDy=0;" edge="1" parent="1" source="FvHJdSDC7yqyWIZDWJ_g-6" target="FvHJdSDC7yqyWIZDWJ_g-54">
          <mxGeometry relative="1" as="geometry">
            <Array as="points">
              <mxPoint x="-3716" y="530" />
              <mxPoint x="-1500" y="530" />
              <mxPoint x="-1500" y="740" />
              <mxPoint x="-1660" y="740" />
            </Array>
          </mxGeometry>
        </mxCell>
        <mxCell id="E67KO1QZ1ISF3svEd59q-12" style="edgeStyle=orthogonalEdgeStyle;rounded=1;orthogonalLoop=1;jettySize=auto;html=1;exitX=0.5;exitY=1;exitDx=0;exitDy=0;entryX=0.5;entryY=0;entryDx=0;entryDy=0;" edge="1" parent="1" source="FvHJdSDC7yqyWIZDWJ_g-6" target="E67KO1QZ1ISF3svEd59q-8">
          <mxGeometry relative="1" as="geometry">
            <Array as="points">
              <mxPoint x="-3716" y="530" />
              <mxPoint x="-2355" y="530" />
            </Array>
          </mxGeometry>
        </mxCell>
        <mxCell id="E67KO1QZ1ISF3svEd59q-13" style="edgeStyle=orthogonalEdgeStyle;rounded=1;orthogonalLoop=1;jettySize=auto;html=1;exitX=0.5;exitY=1;exitDx=0;exitDy=0;entryX=0.5;entryY=0;entryDx=0;entryDy=0;" edge="1" parent="1" source="FvHJdSDC7yqyWIZDWJ_g-6" target="E67KO1QZ1ISF3svEd59q-9">
          <mxGeometry relative="1" as="geometry">
            <Array as="points">
              <mxPoint x="-3716" y="530" />
              <mxPoint x="-2157" y="530" />
            </Array>
          </mxGeometry>
        </mxCell>
        <mxCell id="E67KO1QZ1ISF3svEd59q-31" style="edgeStyle=orthogonalEdgeStyle;rounded=1;orthogonalLoop=1;jettySize=auto;html=1;exitX=0.5;exitY=1;exitDx=0;exitDy=0;entryX=0.5;entryY=0;entryDx=0;entryDy=0;" edge="1" parent="1" source="FvHJdSDC7yqyWIZDWJ_g-6" target="E67KO1QZ1ISF3svEd59q-18">
          <mxGeometry relative="1" as="geometry">
            <Array as="points">
              <mxPoint x="-3716" y="530" />
              <mxPoint x="-1915" y="530" />
            </Array>
          </mxGeometry>
        </mxCell>
        <mxCell id="FvHJdSDC7yqyWIZDWJ_g-6" value="&lt;font face=&quot;Consolas&quot;&gt;&lt;font color=&quot;#10c997&quot;&gt;&lt;span style=&quot;font-size: 17px&quot;&gt;VkDevice&lt;/span&gt;&lt;/font&gt;&lt;br&gt;&lt;font color=&quot;#1a1a1a&quot;&gt;&lt;span style=&quot;font-size: 17px&quot;&gt;device&lt;/span&gt;&lt;/font&gt;&lt;br&gt;&lt;/font&gt;" style="rounded=1;whiteSpace=wrap;html=1;" parent="1" vertex="1">
          <mxGeometry x="-3766" y="430" width="100" height="50" as="geometry" />
        </mxCell>
        <mxCell id="J2HJMgRs6SmeJb-_eaJ9-8" style="edgeStyle=orthogonalEdgeStyle;rounded=1;sketch=0;orthogonalLoop=1;jettySize=auto;html=1;exitX=0.5;exitY=1;exitDx=0;exitDy=0;shadow=0;strokeColor=#FF5724;entryX=0;entryY=0.5;entryDx=0;entryDy=0;" parent="1" source="FvHJdSDC7yqyWIZDWJ_g-10" target="J2HJMgRs6SmeJb-_eaJ9-3" edge="1">
          <mxGeometry relative="1" as="geometry">
            <mxPoint x="-3740" y="1440" as="targetPoint" />
          </mxGeometry>
        </mxCell>
        <mxCell id="FvHJdSDC7yqyWIZDWJ_g-10" value="&lt;font face=&quot;Consolas&quot;&gt;&lt;font color=&quot;#10c997&quot;&gt;&lt;span style=&quot;font-size: 17px&quot;&gt;VkQueue&lt;/span&gt;&lt;/font&gt;&lt;br&gt;&lt;font color=&quot;#1a1a1a&quot;&gt;&lt;span style=&quot;font-size: 17px&quot;&gt;graphicsQueue&lt;/span&gt;&lt;/font&gt;&lt;br&gt;&lt;/font&gt;" style="rounded=1;whiteSpace=wrap;html=1;" parent="1" vertex="1">
          <mxGeometry x="-4060" y="610" width="140" height="50" as="geometry" />
        </mxCell>
        <mxCell id="FvHJdSDC7yqyWIZDWJ_g-56" style="edgeStyle=orthogonalEdgeStyle;rounded=0;orthogonalLoop=1;jettySize=auto;html=1;exitX=0.5;exitY=1;exitDx=0;exitDy=0;" parent="1" source="FvHJdSDC7yqyWIZDWJ_g-11" target="FvHJdSDC7yqyWIZDWJ_g-29" edge="1">
          <mxGeometry relative="1" as="geometry" />
        </mxCell>
        <mxCell id="J2HJMgRs6SmeJb-_eaJ9-5" style="edgeStyle=orthogonalEdgeStyle;rounded=1;sketch=0;orthogonalLoop=1;jettySize=auto;html=1;exitX=0.25;exitY=1;exitDx=0;exitDy=0;shadow=0;strokeColor=#FF5724;entryX=0;entryY=0.5;entryDx=0;entryDy=0;" parent="1" source="FvHJdSDC7yqyWIZDWJ_g-11" target="J2HJMgRs6SmeJb-_eaJ9-2" edge="1">
          <mxGeometry relative="1" as="geometry">
            <mxPoint x="-3760" y="1370" as="targetPoint" />
            <Array as="points">
              <mxPoint x="-3678" y="690" />
              <mxPoint x="-3880" y="690" />
              <mxPoint x="-3880" y="1370" />
            </Array>
          </mxGeometry>
        </mxCell>
        <mxCell id="J2HJMgRs6SmeJb-_eaJ9-10" style="edgeStyle=orthogonalEdgeStyle;rounded=1;sketch=0;orthogonalLoop=1;jettySize=auto;html=1;exitX=0.25;exitY=1;exitDx=0;exitDy=0;entryX=0;entryY=0.5;entryDx=0;entryDy=0;shadow=0;strokeColor=#FF5724;" parent="1" source="FvHJdSDC7yqyWIZDWJ_g-11" target="J2HJMgRs6SmeJb-_eaJ9-4" edge="1">
          <mxGeometry relative="1" as="geometry">
            <Array as="points">
              <mxPoint x="-3678" y="720" />
              <mxPoint x="-3830" y="720" />
              <mxPoint x="-3830" y="1580" />
            </Array>
          </mxGeometry>
        </mxCell>
        <mxCell id="FvHJdSDC7yqyWIZDWJ_g-11" value="&lt;font face=&quot;Consolas&quot;&gt;&lt;font color=&quot;#10c997&quot;&gt;&lt;span style=&quot;font-size: 17px&quot;&gt;VkSwapchainKHR&lt;/span&gt;&lt;/font&gt;&lt;br&gt;&lt;font color=&quot;#1a1a1a&quot;&gt;&lt;span style=&quot;font-size: 17px&quot;&gt;swapChain&lt;/span&gt;&lt;/font&gt;&lt;br&gt;&lt;/font&gt;" style="rounded=1;whiteSpace=wrap;html=1;" parent="1" vertex="1">
          <mxGeometry x="-3716" y="610" width="150" height="50" as="geometry" />
        </mxCell>
        <mxCell id="J2HJMgRs6SmeJb-_eaJ9-9" style="edgeStyle=orthogonalEdgeStyle;rounded=1;sketch=0;orthogonalLoop=1;jettySize=auto;html=1;exitX=0.5;exitY=1;exitDx=0;exitDy=0;entryX=0;entryY=0.5;entryDx=0;entryDy=0;shadow=0;strokeColor=#FF5724;" parent="1" source="FvHJdSDC7yqyWIZDWJ_g-12" target="J2HJMgRs6SmeJb-_eaJ9-4" edge="1">
          <mxGeometry relative="1" as="geometry">
            <Array as="points">
              <mxPoint x="-3830" y="660" />
              <mxPoint x="-3830" y="1510" />
            </Array>
          </mxGeometry>
        </mxCell>
        <mxCell id="FvHJdSDC7yqyWIZDWJ_g-12" value="&lt;font face=&quot;Consolas&quot;&gt;&lt;font color=&quot;#10c997&quot;&gt;&lt;span style=&quot;font-size: 17px&quot;&gt;VkQueue&lt;/span&gt;&lt;/font&gt;&lt;br&gt;&lt;font color=&quot;#1a1a1a&quot;&gt;&lt;span style=&quot;font-size: 17px&quot;&gt;presentQueue&lt;/span&gt;&lt;/font&gt;&lt;br&gt;&lt;/font&gt;" style="rounded=1;whiteSpace=wrap;html=1;" parent="1" vertex="1">
          <mxGeometry x="-3900" y="610" width="140" height="50" as="geometry" />
        </mxCell>
        <mxCell id="FvHJdSDC7yqyWIZDWJ_g-20" value="&lt;font color=&quot;#cfcf00&quot; face=&quot;Consolas&quot;&gt;&lt;span style=&quot;font-size: 11px&quot;&gt;vkEnumeratePhysicalDevices&lt;/span&gt;&lt;/font&gt;" style="edgeLabel;html=1;align=center;verticalAlign=middle;resizable=0;points=[];" parent="1" vertex="1" connectable="0">
          <mxGeometry x="-3716" y="290" as="geometry" />
        </mxCell>
        <mxCell id="FvHJdSDC7yqyWIZDWJ_g-21" value="&lt;font color=&quot;#cfcf00&quot; face=&quot;Consolas&quot;&gt;&lt;span style=&quot;font-size: 11px&quot;&gt;vkCreateDevice&lt;/span&gt;&lt;/font&gt;" style="edgeLabel;html=1;align=center;verticalAlign=middle;resizable=0;points=[];" parent="1" vertex="1" connectable="0">
          <mxGeometry x="-3716" y="400" as="geometry" />
        </mxCell>
        <mxCell id="FvHJdSDC7yqyWIZDWJ_g-22" value="&lt;font color=&quot;#cfcf00&quot; face=&quot;Consolas&quot;&gt;&lt;span style=&quot;font-size: 11px&quot;&gt;vkGetDeviceQueue&lt;/span&gt;&lt;/font&gt;" style="edgeLabel;html=1;align=center;verticalAlign=middle;resizable=0;points=[];" parent="1" vertex="1" connectable="0">
          <mxGeometry x="-3990" y="580" as="geometry" />
        </mxCell>
        <mxCell id="FvHJdSDC7yqyWIZDWJ_g-23" value="&lt;font color=&quot;#cfcf00&quot; face=&quot;Consolas&quot;&gt;&lt;span style=&quot;font-size: 11px&quot;&gt;vkCreateSwapchainKHR&lt;/span&gt;&lt;/font&gt;" style="edgeLabel;html=1;align=center;verticalAlign=middle;resizable=0;points=[];" parent="1" vertex="1" connectable="0">
          <mxGeometry x="-3656" y="590" as="geometry">
            <mxPoint x="8" y="-8" as="offset" />
          </mxGeometry>
        </mxCell>
        <mxCell id="FvHJdSDC7yqyWIZDWJ_g-24" value="&lt;font color=&quot;#cfcf00&quot; face=&quot;Consolas&quot;&gt;&lt;span style=&quot;font-size: 11px&quot;&gt;vkGetDeviceQueue&lt;/span&gt;&lt;/font&gt;" style="edgeLabel;html=1;align=center;verticalAlign=middle;resizable=0;points=[];" parent="1" vertex="1" connectable="0">
          <mxGeometry x="-3831" y="580" as="geometry" />
        </mxCell>
        <mxCell id="FvHJdSDC7yqyWIZDWJ_g-25" value="&lt;font color=&quot;#cfcf00&quot; face=&quot;Consolas&quot;&gt;&lt;span style=&quot;font-size: 11px&quot;&gt;vkCreateBuffer&lt;/span&gt;&lt;/font&gt;" style="edgeLabel;html=1;align=center;verticalAlign=middle;resizable=0;points=[];" parent="1" vertex="1" connectable="0">
          <mxGeometry x="-3120" y="740" as="geometry">
            <mxPoint x="8" y="-8" as="offset" />
          </mxGeometry>
        </mxCell>
        <mxCell id="FvHJdSDC7yqyWIZDWJ_g-26" value="&lt;font color=&quot;#cfcf00&quot; face=&quot;Consolas&quot;&gt;&lt;span style=&quot;font-size: 11px&quot;&gt;vkGetSwapchainImagesKHR&lt;/span&gt;&lt;/font&gt;" style="edgeLabel;html=1;align=center;verticalAlign=middle;resizable=0;points=[];" parent="1" vertex="1" connectable="0">
          <mxGeometry x="-3641" y="740" as="geometry">
            <mxPoint x="4" y="1" as="offset" />
          </mxGeometry>
        </mxCell>
        <mxCell id="FvHJdSDC7yqyWIZDWJ_g-33" style="edgeStyle=orthogonalEdgeStyle;rounded=0;orthogonalLoop=1;jettySize=auto;html=1;exitX=0.5;exitY=1;exitDx=0;exitDy=0;entryX=0.5;entryY=0;entryDx=0;entryDy=0;" parent="1" source="FvHJdSDC7yqyWIZDWJ_g-29" target="FvHJdSDC7yqyWIZDWJ_g-32" edge="1">
          <mxGeometry relative="1" as="geometry" />
        </mxCell>
        <mxCell id="E67KO1QZ1ISF3svEd59q-21" style="edgeStyle=orthogonalEdgeStyle;rounded=1;orthogonalLoop=1;jettySize=auto;html=1;exitX=1;exitY=0.5;exitDx=0;exitDy=0;entryX=0;entryY=0.5;entryDx=0;entryDy=0;strokeColor=#97D077;" edge="1" parent="1" source="FvHJdSDC7yqyWIZDWJ_g-29" target="E67KO1QZ1ISF3svEd59q-20">
          <mxGeometry relative="1" as="geometry" />
        </mxCell>
        <mxCell id="FvHJdSDC7yqyWIZDWJ_g-29" value="&lt;font face=&quot;Consolas&quot;&gt;&lt;font color=&quot;#10c997&quot;&gt;&lt;span style=&quot;font-size: 17px&quot;&gt;vec&amp;lt;VkImage&amp;gt;&lt;/span&gt;&lt;/font&gt;&lt;br&gt;&lt;font color=&quot;#1a1a1a&quot;&gt;&lt;span style=&quot;font-size: 17px&quot;&gt;swapChainImages&lt;/span&gt;&lt;/font&gt;&lt;br&gt;&lt;/font&gt;" style="rounded=1;whiteSpace=wrap;html=1;" parent="1" vertex="1">
          <mxGeometry x="-3721" y="765" width="160" height="50" as="geometry" />
        </mxCell>
        <mxCell id="FvHJdSDC7yqyWIZDWJ_g-52" style="edgeStyle=orthogonalEdgeStyle;rounded=1;orthogonalLoop=1;jettySize=auto;html=1;exitX=0.5;exitY=1;exitDx=0;exitDy=0;entryX=0.5;entryY=0;entryDx=0;entryDy=0;" parent="1" source="FvHJdSDC7yqyWIZDWJ_g-32" target="FvHJdSDC7yqyWIZDWJ_g-41" edge="1">
          <mxGeometry relative="1" as="geometry">
            <Array as="points">
              <mxPoint x="-3641" y="1010" />
              <mxPoint x="-3537" y="1010" />
            </Array>
          </mxGeometry>
        </mxCell>
        <mxCell id="FvHJdSDC7yqyWIZDWJ_g-32" value="&lt;font face=&quot;Consolas&quot;&gt;&lt;font color=&quot;#10c997&quot;&gt;&lt;span style=&quot;font-size: 17px&quot;&gt;vec&amp;lt;VkImageView&amp;gt;&lt;/span&gt;&lt;/font&gt;&lt;br&gt;&lt;font color=&quot;#1a1a1a&quot;&gt;&lt;span style=&quot;font-size: 17px&quot;&gt;swapChainImageViews&lt;/span&gt;&lt;/font&gt;&lt;br&gt;&lt;/font&gt;" style="rounded=1;whiteSpace=wrap;html=1;" parent="1" vertex="1">
          <mxGeometry x="-3738.5" y="890" width="195" height="50" as="geometry" />
        </mxCell>
        <mxCell id="FvHJdSDC7yqyWIZDWJ_g-27" value="&lt;font color=&quot;#cfcf00&quot; face=&quot;Consolas&quot;&gt;&lt;span style=&quot;font-size: 11px&quot;&gt;vkCreateImageView&lt;/span&gt;&lt;/font&gt;" style="edgeLabel;html=1;align=center;verticalAlign=middle;resizable=0;points=[];" parent="1" vertex="1" connectable="0">
          <mxGeometry x="-3644.75" y="870" as="geometry">
            <mxPoint x="8" y="-8" as="offset" />
          </mxGeometry>
        </mxCell>
        <mxCell id="FvHJdSDC7yqyWIZDWJ_g-63" style="edgeStyle=orthogonalEdgeStyle;rounded=1;orthogonalLoop=1;jettySize=auto;html=1;exitX=0.5;exitY=1;exitDx=0;exitDy=0;entryX=0.5;entryY=0;entryDx=0;entryDy=0;" parent="1" source="FvHJdSDC7yqyWIZDWJ_g-39" target="FvHJdSDC7yqyWIZDWJ_g-41" edge="1">
          <mxGeometry relative="1" as="geometry">
            <Array as="points">
              <mxPoint x="-3350" y="1010" />
              <mxPoint x="-3537" y="1010" />
            </Array>
          </mxGeometry>
        </mxCell>
        <mxCell id="FvHJdSDC7yqyWIZDWJ_g-88" style="edgeStyle=orthogonalEdgeStyle;rounded=1;orthogonalLoop=1;jettySize=auto;html=1;exitX=0;exitY=0.5;exitDx=0;exitDy=0;entryX=1;entryY=0.5;entryDx=0;entryDy=0;strokeColor=#0069D4;" parent="1" source="FvHJdSDC7yqyWIZDWJ_g-39" target="FvHJdSDC7yqyWIZDWJ_g-87" edge="1">
          <mxGeometry relative="1" as="geometry">
            <Array as="points">
              <mxPoint x="-3780" y="965" />
              <mxPoint x="-3780" y="1090" />
            </Array>
          </mxGeometry>
        </mxCell>
        <mxCell id="FvHJdSDC7yqyWIZDWJ_g-39" value="&lt;font face=&quot;Consolas&quot;&gt;&lt;font color=&quot;#10c997&quot;&gt;&lt;span style=&quot;font-size: 17px&quot;&gt;VkRenderPass&lt;/span&gt;&lt;/font&gt;&lt;br&gt;&lt;font color=&quot;#1a1a1a&quot;&gt;&lt;span style=&quot;font-size: 17px&quot;&gt;renderPass&lt;/span&gt;&lt;/font&gt;&lt;br&gt;&lt;/font&gt;" style="rounded=1;whiteSpace=wrap;html=1;" parent="1" vertex="1">
          <mxGeometry x="-3421" y="940" width="142.5" height="50" as="geometry" />
        </mxCell>
        <mxCell id="FvHJdSDC7yqyWIZDWJ_g-92" style="edgeStyle=orthogonalEdgeStyle;rounded=1;orthogonalLoop=1;jettySize=auto;html=1;exitX=0.5;exitY=1;exitDx=0;exitDy=0;entryX=1;entryY=0.5;entryDx=0;entryDy=0;strokeColor=#0069D4;" parent="1" source="FvHJdSDC7yqyWIZDWJ_g-40" target="FvHJdSDC7yqyWIZDWJ_g-91" edge="1">
          <mxGeometry relative="1" as="geometry">
            <Array as="points">
              <mxPoint x="-1660" y="1160" />
            </Array>
          </mxGeometry>
        </mxCell>
        <mxCell id="FvHJdSDC7yqyWIZDWJ_g-40" value="&lt;font face=&quot;Consolas&quot;&gt;&lt;font color=&quot;#10c997&quot;&gt;&lt;span style=&quot;font-size: 17px&quot;&gt;VkPipeline&lt;/span&gt;&lt;/font&gt;&lt;br&gt;&lt;font color=&quot;#1a1a1a&quot;&gt;&lt;span style=&quot;font-size: 17px&quot;&gt;graphicsPipeline&lt;/span&gt;&lt;/font&gt;&lt;br&gt;&lt;/font&gt;" style="rounded=1;whiteSpace=wrap;html=1;" parent="1" vertex="1">
          <mxGeometry x="-1747.5" y="955" width="175" height="50" as="geometry" />
        </mxCell>
        <mxCell id="FvHJdSDC7yqyWIZDWJ_g-90" style="edgeStyle=orthogonalEdgeStyle;rounded=0;orthogonalLoop=1;jettySize=auto;html=1;exitX=0;exitY=0.5;exitDx=0;exitDy=0;entryX=1;entryY=0.5;entryDx=0;entryDy=0;strokeColor=#0069D4;" parent="1" source="FvHJdSDC7yqyWIZDWJ_g-41" target="FvHJdSDC7yqyWIZDWJ_g-87" edge="1">
          <mxGeometry relative="1" as="geometry" />
        </mxCell>
        <mxCell id="FvHJdSDC7yqyWIZDWJ_g-41" value="&lt;font face=&quot;Consolas&quot;&gt;&lt;font color=&quot;#10c997&quot;&gt;&lt;span style=&quot;font-size: 17px&quot;&gt;vec&amp;lt;VkFramebuffer&amp;gt;&lt;/span&gt;&lt;/font&gt;&lt;br&gt;&lt;font color=&quot;#1a1a1a&quot;&gt;&lt;span style=&quot;font-size: 17px&quot;&gt;swapChainFramebuffers&lt;/span&gt;&lt;/font&gt;&lt;br&gt;&lt;/font&gt;" style="rounded=1;whiteSpace=wrap;html=1;" parent="1" vertex="1">
          <mxGeometry x="-3644.75" y="1065" width="215" height="50" as="geometry" />
        </mxCell>
        <mxCell id="FvHJdSDC7yqyWIZDWJ_g-28" value="&lt;font color=&quot;#cfcf00&quot; face=&quot;Consolas&quot;&gt;&lt;span style=&quot;font-size: 11px&quot;&gt;vkCreateRenderPass&lt;/span&gt;&lt;/font&gt;" style="edgeLabel;html=1;align=center;verticalAlign=middle;resizable=0;points=[];" parent="1" vertex="1" connectable="0">
          <mxGeometry x="-3330" y="850" as="geometry">
            <mxPoint x="-24" y="67" as="offset" />
          </mxGeometry>
        </mxCell>
        <mxCell id="FvHJdSDC7yqyWIZDWJ_g-45" value="&lt;font color=&quot;#cfcf00&quot; face=&quot;Consolas&quot;&gt;&lt;span style=&quot;font-size: 11px&quot;&gt;vkCreateCommandPool&lt;/span&gt;&lt;/font&gt;" style="edgeLabel;html=1;align=center;verticalAlign=middle;resizable=0;points=[];" parent="1" vertex="1" connectable="0">
          <mxGeometry x="-4191" y="520" as="geometry">
            <mxPoint x="-26" y="58" as="offset" />
          </mxGeometry>
        </mxCell>
        <mxCell id="FvHJdSDC7yqyWIZDWJ_g-48" value="&lt;font color=&quot;#cfcf00&quot; face=&quot;Consolas&quot;&gt;&lt;span style=&quot;font-size: 11px&quot;&gt;vkBindBufferMemory&lt;/span&gt;&lt;/font&gt;" style="edgeLabel;html=1;align=center;verticalAlign=middle;resizable=0;points=[];" parent="1" vertex="1" connectable="0">
          <mxGeometry x="-2980" y="780" as="geometry">
            <mxPoint x="-26" y="58" as="offset" />
          </mxGeometry>
        </mxCell>
        <mxCell id="FvHJdSDC7yqyWIZDWJ_g-49" value="&lt;font color=&quot;#cfcf00&quot; face=&quot;Consolas&quot;&gt;&lt;span style=&quot;font-size: 11px&quot;&gt;vkAllocateMemory&lt;/span&gt;&lt;/font&gt;" style="edgeLabel;html=1;align=center;verticalAlign=middle;resizable=0;points=[];" parent="1" vertex="1" connectable="0">
          <mxGeometry x="-2890" y="680" as="geometry">
            <mxPoint x="-33" y="50" as="offset" />
          </mxGeometry>
        </mxCell>
        <mxCell id="FvHJdSDC7yqyWIZDWJ_g-50" value="&lt;font color=&quot;#cfcf00&quot; face=&quot;Consolas&quot;&gt;&lt;span style=&quot;font-size: 11px&quot;&gt;vkCreateFramebuffer&lt;/span&gt;&lt;/font&gt;" style="edgeLabel;html=1;align=center;verticalAlign=middle;resizable=0;points=[];" parent="1" vertex="1" connectable="0">
          <mxGeometry x="-3511" y="980" as="geometry">
            <mxPoint x="-26" y="58" as="offset" />
          </mxGeometry>
        </mxCell>
        <mxCell id="FvHJdSDC7yqyWIZDWJ_g-77" style="edgeStyle=orthogonalEdgeStyle;rounded=0;orthogonalLoop=1;jettySize=auto;html=1;exitX=0.5;exitY=1;exitDx=0;exitDy=0;entryX=0.5;entryY=0;entryDx=0;entryDy=0;" parent="1" source="FvHJdSDC7yqyWIZDWJ_g-53" target="FvHJdSDC7yqyWIZDWJ_g-70" edge="1">
          <mxGeometry relative="1" as="geometry">
            <Array as="points">
              <mxPoint x="-4212" y="660" />
            </Array>
          </mxGeometry>
        </mxCell>
        <mxCell id="FvHJdSDC7yqyWIZDWJ_g-53" value="&lt;font face=&quot;Consolas&quot;&gt;&lt;font color=&quot;#10c997&quot;&gt;&lt;span style=&quot;font-size: 17px&quot;&gt;VkCommandPool&lt;/span&gt;&lt;/font&gt;&lt;br&gt;&lt;font color=&quot;#1a1a1a&quot;&gt;&lt;span style=&quot;font-size: 17px&quot;&gt;commandPool&lt;/span&gt;&lt;/font&gt;&lt;br&gt;&lt;/font&gt;" style="rounded=1;whiteSpace=wrap;html=1;" parent="1" vertex="1">
          <mxGeometry x="-4301" y="610" width="175" height="50" as="geometry" />
        </mxCell>
        <mxCell id="RbgR3sPPMLUCvP3Kl11R-3" style="edgeStyle=orthogonalEdgeStyle;rounded=1;sketch=0;orthogonalLoop=1;jettySize=auto;html=1;exitX=0.5;exitY=1;exitDx=0;exitDy=0;shadow=0;strokeColor=#000000;" parent="1" source="FvHJdSDC7yqyWIZDWJ_g-54" target="FvHJdSDC7yqyWIZDWJ_g-40" edge="1">
          <mxGeometry relative="1" as="geometry" />
        </mxCell>
        <mxCell id="E67KO1QZ1ISF3svEd59q-30" style="edgeStyle=orthogonalEdgeStyle;rounded=1;orthogonalLoop=1;jettySize=auto;html=1;exitX=0;exitY=0.5;exitDx=0;exitDy=0;entryX=1;entryY=0.5;entryDx=0;entryDy=0;strokeColor=#0069D4;" edge="1" parent="1" source="FvHJdSDC7yqyWIZDWJ_g-54" target="E67KO1QZ1ISF3svEd59q-27">
          <mxGeometry relative="1" as="geometry">
            <Array as="points">
              <mxPoint x="-1780" y="830" />
              <mxPoint x="-1780" y="1740" />
              <mxPoint x="-3930" y="1740" />
              <mxPoint x="-3930" y="1370" />
            </Array>
          </mxGeometry>
        </mxCell>
        <mxCell id="FvHJdSDC7yqyWIZDWJ_g-54" value="&lt;font face=&quot;Consolas&quot;&gt;&lt;font color=&quot;#10c997&quot;&gt;&lt;span style=&quot;font-size: 17px&quot;&gt;VkPipelineLayout&lt;/span&gt;&lt;/font&gt;&lt;br&gt;&lt;font color=&quot;#1a1a1a&quot;&gt;&lt;span style=&quot;font-size: 17px&quot;&gt;pipelineLayout&lt;/span&gt;&lt;/font&gt;&lt;br&gt;&lt;/font&gt;" style="rounded=1;whiteSpace=wrap;html=1;" parent="1" vertex="1">
          <mxGeometry x="-1747.5" y="805" width="175" height="50" as="geometry" />
        </mxCell>
        <mxCell id="FvHJdSDC7yqyWIZDWJ_g-42" value="&lt;font color=&quot;#cfcf00&quot; face=&quot;Consolas&quot;&gt;&lt;span style=&quot;font-size: 11px&quot;&gt;vkCreateGraphicsPipelines&lt;/span&gt;&lt;/font&gt;" style="edgeLabel;html=1;align=center;verticalAlign=middle;resizable=0;points=[];" parent="1" vertex="1" connectable="0">
          <mxGeometry x="-1650" y="920" as="geometry">
            <mxPoint x="-8" y="5" as="offset" />
          </mxGeometry>
        </mxCell>
        <mxCell id="FvHJdSDC7yqyWIZDWJ_g-74" style="edgeStyle=orthogonalEdgeStyle;rounded=0;orthogonalLoop=1;jettySize=auto;html=1;exitX=0.75;exitY=1;exitDx=0;exitDy=0;shape=link;sketch=0;shadow=0;strokeColor=#9E5321;" parent="1" source="FvHJdSDC7yqyWIZDWJ_g-66" target="FvHJdSDC7yqyWIZDWJ_g-67" edge="1">
          <mxGeometry relative="1" as="geometry">
            <mxPoint x="-3080" y="870" as="sourcePoint" />
            <mxPoint x="-2910" y="820" as="targetPoint" />
            <Array as="points">
              <mxPoint x="-3079" y="850" />
              <mxPoint x="-2925" y="850" />
            </Array>
          </mxGeometry>
        </mxCell>
        <mxCell id="FvHJdSDC7yqyWIZDWJ_g-99" style="edgeStyle=orthogonalEdgeStyle;rounded=1;orthogonalLoop=1;jettySize=auto;html=1;exitX=0.5;exitY=1;exitDx=0;exitDy=0;entryX=1;entryY=0.5;entryDx=0;entryDy=0;strokeColor=#0069D4;" parent="1" source="FvHJdSDC7yqyWIZDWJ_g-66" target="FvHJdSDC7yqyWIZDWJ_g-93" edge="1">
          <mxGeometry relative="1" as="geometry">
            <Array as="points">
              <mxPoint x="-3113" y="1230" />
            </Array>
          </mxGeometry>
        </mxCell>
        <mxCell id="FvHJdSDC7yqyWIZDWJ_g-66" value="&lt;font face=&quot;Consolas&quot;&gt;&lt;font color=&quot;#10c997&quot;&gt;&lt;span style=&quot;font-size: 17px&quot;&gt;VkBuffer&lt;/span&gt;&lt;/font&gt;&lt;br&gt;&lt;font color=&quot;#1a1a1a&quot;&gt;&lt;span style=&quot;font-size: 17px&quot;&gt;vertexBuffer&lt;/span&gt;&lt;/font&gt;&lt;br&gt;&lt;/font&gt;" style="rounded=1;whiteSpace=wrap;html=1;" parent="1" vertex="1">
          <mxGeometry x="-3180" y="765" width="135" height="50" as="geometry" />
        </mxCell>
        <mxCell id="FvHJdSDC7yqyWIZDWJ_g-67" value="&lt;font face=&quot;Consolas&quot;&gt;&lt;font color=&quot;#10c997&quot;&gt;&lt;span style=&quot;font-size: 17px&quot;&gt;VkDeviceMemory&lt;/span&gt;&lt;/font&gt;&lt;br&gt;&lt;font color=&quot;#1a1a1a&quot;&gt;&lt;span style=&quot;font-size: 17px&quot;&gt;vertexBufferMemory&lt;/span&gt;&lt;/font&gt;&lt;br&gt;&lt;/font&gt;" style="rounded=1;whiteSpace=wrap;html=1;" parent="1" vertex="1">
          <mxGeometry x="-3020" y="765" width="190" height="50" as="geometry" />
        </mxCell>
        <mxCell id="FvHJdSDC7yqyWIZDWJ_g-105" style="edgeStyle=orthogonalEdgeStyle;rounded=1;sketch=0;orthogonalLoop=1;jettySize=auto;html=1;exitX=0.5;exitY=1;exitDx=0;exitDy=0;entryX=1;entryY=0.5;entryDx=0;entryDy=0;shadow=0;strokeColor=#0069D4;" parent="1" source="FvHJdSDC7yqyWIZDWJ_g-68" target="FvHJdSDC7yqyWIZDWJ_g-94" edge="1">
          <mxGeometry relative="1" as="geometry" />
        </mxCell>
        <mxCell id="FvHJdSDC7yqyWIZDWJ_g-106" style="edgeStyle=orthogonalEdgeStyle;rounded=0;sketch=0;orthogonalLoop=1;jettySize=auto;html=1;exitX=0.75;exitY=1;exitDx=0;exitDy=0;entryX=0.5;entryY=1;entryDx=0;entryDy=0;shadow=0;shape=link;strokeColor=#9E5321;" parent="1" source="FvHJdSDC7yqyWIZDWJ_g-68" target="FvHJdSDC7yqyWIZDWJ_g-69" edge="1">
          <mxGeometry relative="1" as="geometry">
            <Array as="points">
              <mxPoint x="-2697" y="850" />
              <mxPoint x="-2552" y="850" />
              <mxPoint x="-2552" y="815" />
            </Array>
          </mxGeometry>
        </mxCell>
        <mxCell id="FvHJdSDC7yqyWIZDWJ_g-68" value="&lt;font face=&quot;Consolas&quot;&gt;&lt;font color=&quot;#10c997&quot;&gt;&lt;span style=&quot;font-size: 17px&quot;&gt;VkBuffer&lt;/span&gt;&lt;/font&gt;&lt;br&gt;&lt;font color=&quot;#1a1a1a&quot;&gt;&lt;span style=&quot;font-size: 17px&quot;&gt;indexBuffer&lt;/span&gt;&lt;/font&gt;&lt;br&gt;&lt;/font&gt;" style="rounded=1;whiteSpace=wrap;html=1;" parent="1" vertex="1">
          <mxGeometry x="-2795" y="765" width="130" height="50" as="geometry" />
        </mxCell>
        <mxCell id="FvHJdSDC7yqyWIZDWJ_g-69" value="&lt;font color=&quot;#10c997&quot; style=&quot;font-family: &amp;#34;consolas&amp;#34;&quot;&gt;&lt;span style=&quot;font-size: 17px&quot;&gt;VkDeviceMemory&lt;/span&gt;&lt;/font&gt;&lt;br style=&quot;font-family: &amp;#34;consolas&amp;#34;&quot;&gt;&lt;font color=&quot;#1a1a1a&quot; face=&quot;consolas&quot;&gt;&lt;span style=&quot;font-size: 17px&quot;&gt;indexBufferMemory&lt;/span&gt;&lt;/font&gt;" style="rounded=1;whiteSpace=wrap;html=1;" parent="1" vertex="1">
          <mxGeometry x="-2640" y="765" width="175" height="50" as="geometry" />
        </mxCell>
        <mxCell id="FvHJdSDC7yqyWIZDWJ_g-86" style="edgeStyle=orthogonalEdgeStyle;rounded=0;orthogonalLoop=1;jettySize=auto;html=1;exitX=0.5;exitY=1;exitDx=0;exitDy=0;" parent="1" source="FvHJdSDC7yqyWIZDWJ_g-70" edge="1">
          <mxGeometry relative="1" as="geometry">
            <mxPoint x="-4212" y="980" as="targetPoint" />
            <Array as="points">
              <mxPoint x="-4212" y="967" />
              <mxPoint x="-4212" y="967" />
              <mxPoint x="-4212" y="980" />
            </Array>
          </mxGeometry>
        </mxCell>
        <mxCell id="FvHJdSDC7yqyWIZDWJ_g-70" value="&lt;font face=&quot;Consolas&quot;&gt;&lt;font color=&quot;#10c997&quot;&gt;&lt;span style=&quot;font-size: 17px&quot;&gt;vec&amp;lt;VkCommandBuffer&amp;gt;&lt;/span&gt;&lt;/font&gt;&lt;br&gt;&lt;font color=&quot;#1a1a1a&quot;&gt;&lt;span style=&quot;font-size: 17px&quot;&gt;commandBuffers&lt;/span&gt;&lt;/font&gt;&lt;br&gt;&lt;/font&gt;" style="rounded=1;whiteSpace=wrap;html=1;" parent="1" vertex="1">
          <mxGeometry x="-4317.25" y="800" width="210" height="50" as="geometry" />
        </mxCell>
        <mxCell id="FvHJdSDC7yqyWIZDWJ_g-76" value="&lt;font color=&quot;#cfcf00&quot; face=&quot;Consolas&quot;&gt;&lt;span style=&quot;font-size: 11px&quot;&gt;vkAllocateCommandBuffers&lt;/span&gt;&lt;/font&gt;" style="edgeLabel;html=1;align=center;verticalAlign=middle;resizable=0;points=[];" parent="1" vertex="1" connectable="0">
          <mxGeometry x="-4201" y="710" as="geometry">
            <mxPoint x="-26" y="58" as="offset" />
          </mxGeometry>
        </mxCell>
        <mxCell id="FvHJdSDC7yqyWIZDWJ_g-85" value="&lt;span style=&quot;color: rgb(207 , 207 , 0) ; font-family: &amp;#34;consolas&amp;#34; ; font-size: 17px ; background-color: rgb(255 , 255 , 255)&quot;&gt;vkBeginCommandBuffer&lt;/span&gt;&lt;font face=&quot;Consolas&quot;&gt;&lt;br&gt;&lt;/font&gt;" style="rounded=1;whiteSpace=wrap;html=1;" parent="1" vertex="1">
          <mxGeometry x="-4317.25" y="1000" width="210" height="40" as="geometry" />
        </mxCell>
        <mxCell id="FvHJdSDC7yqyWIZDWJ_g-87" value="&lt;span style=&quot;color: rgb(207 , 207 , 0) ; font-family: &amp;#34;consolas&amp;#34; ; font-size: 17px ; background-color: rgb(255 , 255 , 255)&quot;&gt;vkCmdBeginRenderPass&lt;/span&gt;&lt;font face=&quot;Consolas&quot;&gt;&lt;br&gt;&lt;/font&gt;" style="rounded=1;whiteSpace=wrap;html=1;" parent="1" vertex="1">
          <mxGeometry x="-4316" y="1070" width="207.5" height="40" as="geometry" />
        </mxCell>
        <mxCell id="FvHJdSDC7yqyWIZDWJ_g-91" value="&lt;font color=&quot;#cfcf00&quot; face=&quot;consolas&quot;&gt;&lt;span style=&quot;font-size: 17px&quot;&gt;vkCmdBindPipeline&lt;/span&gt;&lt;/font&gt;" style="rounded=1;whiteSpace=wrap;html=1;" parent="1" vertex="1">
          <mxGeometry x="-4299.75" y="1140" width="175" height="40" as="geometry" />
        </mxCell>
        <mxCell id="FvHJdSDC7yqyWIZDWJ_g-93" value="&lt;font color=&quot;#cfcf00&quot; face=&quot;consolas&quot;&gt;&lt;span style=&quot;font-size: 17px&quot;&gt;vkCmdBindVertexBuffers&lt;/span&gt;&lt;/font&gt;" style="rounded=1;whiteSpace=wrap;html=1;" parent="1" vertex="1">
          <mxGeometry x="-4324.75" y="1210" width="225" height="40" as="geometry" />
        </mxCell>
        <mxCell id="FvHJdSDC7yqyWIZDWJ_g-94" value="&lt;font color=&quot;#cfcf00&quot; face=&quot;consolas&quot;&gt;&lt;span style=&quot;font-size: 17px&quot;&gt;vkCmdBindIndexBuffer&lt;/span&gt;&lt;/font&gt;" style="rounded=1;whiteSpace=wrap;html=1;" parent="1" vertex="1">
          <mxGeometry x="-4316" y="1280" width="207.5" height="40" as="geometry" />
        </mxCell>
        <mxCell id="FvHJdSDC7yqyWIZDWJ_g-96" value="&lt;font color=&quot;#cfcf00&quot; face=&quot;consolas&quot;&gt;&lt;span style=&quot;font-size: 17px&quot;&gt;vkCmdDrawIndexed&lt;/span&gt;&lt;/font&gt;" style="rounded=1;whiteSpace=wrap;html=1;" parent="1" vertex="1">
          <mxGeometry x="-4299.75" y="1420" width="175" height="40" as="geometry" />
        </mxCell>
        <mxCell id="FvHJdSDC7yqyWIZDWJ_g-97" value="&lt;font color=&quot;#cfcf00&quot; face=&quot;consolas&quot;&gt;&lt;span style=&quot;font-size: 17px&quot;&gt;vkCmdEndRenderPass&lt;/span&gt;&lt;/font&gt;" style="rounded=1;whiteSpace=wrap;html=1;" parent="1" vertex="1">
          <mxGeometry x="-4308.5" y="1490" width="190" height="40" as="geometry" />
        </mxCell>
        <mxCell id="FvHJdSDC7yqyWIZDWJ_g-98" value="&lt;font color=&quot;#cfcf00&quot; face=&quot;consolas&quot;&gt;&lt;span style=&quot;font-size: 17px&quot;&gt;vkEndCommandBuffer&lt;/span&gt;&lt;/font&gt;" style="rounded=1;whiteSpace=wrap;html=1;" parent="1" vertex="1">
          <mxGeometry x="-4307.25" y="1560" width="190" height="40" as="geometry" />
        </mxCell>
        <mxCell id="FvHJdSDC7yqyWIZDWJ_g-103" value="&lt;font color=&quot;#cfcf00&quot; face=&quot;Consolas&quot;&gt;&lt;span style=&quot;font-size: 11px&quot;&gt;vkCreateBuffer&lt;/span&gt;&lt;/font&gt;" style="edgeLabel;html=1;align=center;verticalAlign=middle;resizable=0;points=[];" parent="1" vertex="1" connectable="0">
          <mxGeometry x="-2740" y="740" as="geometry">
            <mxPoint x="8" y="-8" as="offset" />
          </mxGeometry>
        </mxCell>
        <mxCell id="FvHJdSDC7yqyWIZDWJ_g-104" value="&lt;font color=&quot;#cfcf00&quot; face=&quot;Consolas&quot;&gt;&lt;span style=&quot;font-size: 11px&quot;&gt;vkAllocateMemory&lt;/span&gt;&lt;/font&gt;" style="edgeLabel;html=1;align=center;verticalAlign=middle;resizable=0;points=[];" parent="1" vertex="1" connectable="0">
          <mxGeometry x="-2520" y="680" as="geometry">
            <mxPoint x="-33" y="50" as="offset" />
          </mxGeometry>
        </mxCell>
        <mxCell id="FvHJdSDC7yqyWIZDWJ_g-107" value="&lt;font color=&quot;#cfcf00&quot; face=&quot;Consolas&quot;&gt;&lt;span style=&quot;font-size: 11px&quot;&gt;vkBindBufferMemory&lt;/span&gt;&lt;/font&gt;" style="edgeLabel;html=1;align=center;verticalAlign=middle;resizable=0;points=[];" parent="1" vertex="1" connectable="0">
          <mxGeometry x="-2600" y="780" as="geometry">
            <mxPoint x="-26" y="58" as="offset" />
          </mxGeometry>
        </mxCell>
        <mxCell id="J2HJMgRs6SmeJb-_eaJ9-2" value="&lt;font color=&quot;#cfcf00&quot; face=&quot;consolas&quot;&gt;&lt;span style=&quot;font-size: 17px&quot;&gt;vkAcquireNextImageKHR&lt;/span&gt;&lt;/font&gt;" style="rounded=1;whiteSpace=wrap;html=1;" parent="1" vertex="1">
          <mxGeometry x="-3766" y="1350" width="225" height="40" as="geometry" />
        </mxCell>
        <mxCell id="J2HJMgRs6SmeJb-_eaJ9-3" value="&lt;font color=&quot;#cfcf00&quot; face=&quot;consolas&quot;&gt;&lt;span style=&quot;font-size: 17px&quot;&gt;vkQueueSubmit&lt;/span&gt;&lt;/font&gt;" style="rounded=1;whiteSpace=wrap;html=1;" parent="1" vertex="1">
          <mxGeometry x="-3732.75" y="1490" width="158.5" height="40" as="geometry" />
        </mxCell>
        <mxCell id="J2HJMgRs6SmeJb-_eaJ9-4" value="&lt;font color=&quot;#cfcf00&quot; face=&quot;consolas&quot;&gt;&lt;span style=&quot;font-size: 17px&quot;&gt;vkQueuePresentKHR&lt;/span&gt;&lt;/font&gt;" style="rounded=1;whiteSpace=wrap;html=1;" parent="1" vertex="1">
          <mxGeometry x="-3744.87" y="1560" width="182.75" height="40" as="geometry" />
        </mxCell>
        <mxCell id="J2HJMgRs6SmeJb-_eaJ9-13" style="edgeStyle=orthogonalEdgeStyle;rounded=1;sketch=0;orthogonalLoop=1;jettySize=auto;html=1;exitX=1;exitY=0.5;exitDx=0;exitDy=0;entryX=0.5;entryY=1;entryDx=0;entryDy=0;shadow=0;endWidth=13.793103448275863;strokeWidth=4;dashed=1;jumpSize=4;dashPattern=1 1;strokeColor=#CC00CC;" parent="1" source="J2HJMgRs6SmeJb-_eaJ9-12" target="J2HJMgRs6SmeJb-_eaJ9-12" edge="1">
          <mxGeometry relative="1" as="geometry">
            <Array as="points">
              <mxPoint x="-3420" y="1475" />
              <mxPoint x="-3420" y="1680" />
              <mxPoint x="-3653" y="1680" />
            </Array>
          </mxGeometry>
        </mxCell>
        <mxCell id="J2HJMgRs6SmeJb-_eaJ9-14" value="&lt;font style=&quot;font-size: 17px&quot; face=&quot;Consolas&quot; color=&quot;#cc0066&quot;&gt;drawFrame&lt;/font&gt;" style="text;html=1;strokeColor=none;fillColor=none;align=center;verticalAlign=middle;whiteSpace=wrap;rounded=0;fontColor=#999900;" parent="1" vertex="1">
          <mxGeometry x="-3380" y="1560" width="40" height="20" as="geometry" />
        </mxCell>
        <mxCell id="E67KO1QZ1ISF3svEd59q-5" style="edgeStyle=orthogonalEdgeStyle;rounded=1;orthogonalLoop=1;jettySize=auto;html=1;exitX=0.5;exitY=1;exitDx=0;exitDy=0;entryX=0.5;entryY=0;entryDx=0;entryDy=0;" edge="1" parent="1" source="E67KO1QZ1ISF3svEd59q-1" target="FvHJdSDC7yqyWIZDWJ_g-54">
          <mxGeometry relative="1" as="geometry">
            <Array as="points">
              <mxPoint x="-1660" y="710" />
              <mxPoint x="-1660" y="710" />
            </Array>
          </mxGeometry>
        </mxCell>
        <mxCell id="E67KO1QZ1ISF3svEd59q-1" value="&lt;font color=&quot;#10c997&quot; face=&quot;consolas&quot;&gt;&lt;span style=&quot;font-size: 17px&quot;&gt;VkDescriptorSetLayout&lt;/span&gt;&lt;/font&gt;&lt;br style=&quot;font-family: &amp;#34;consolas&amp;#34;&quot;&gt;&lt;font color=&quot;#1a1a1a&quot; face=&quot;consolas&quot;&gt;&lt;span style=&quot;font-size: 17px&quot;&gt;descriptorSetLayout&lt;/span&gt;&lt;/font&gt;" style="rounded=1;whiteSpace=wrap;html=1;" vertex="1" parent="1">
          <mxGeometry x="-1770" y="660" width="220" height="50" as="geometry" />
        </mxCell>
        <mxCell id="J2HJMgRs6SmeJb-_eaJ9-1" value="&lt;font color=&quot;#cfcf00&quot; face=&quot;Consolas&quot;&gt;&lt;span style=&quot;font-size: 11px&quot;&gt;vkCreatePipelineLayout&lt;/span&gt;&lt;/font&gt;" style="edgeLabel;html=1;align=center;verticalAlign=middle;resizable=0;points=[];" parent="1" vertex="1" connectable="0">
          <mxGeometry x="-1640" y="710" as="geometry">
            <mxPoint x="-26" y="58" as="offset" />
          </mxGeometry>
        </mxCell>
        <mxCell id="E67KO1QZ1ISF3svEd59q-7" style="edgeStyle=orthogonalEdgeStyle;rounded=0;sketch=0;orthogonalLoop=1;jettySize=auto;html=1;entryX=0.5;entryY=1;entryDx=0;entryDy=0;shadow=0;shape=link;strokeColor=#9E5321;exitX=0.75;exitY=1;exitDx=0;exitDy=0;" edge="1" parent="1" source="E67KO1QZ1ISF3svEd59q-8" target="E67KO1QZ1ISF3svEd59q-9">
          <mxGeometry relative="1" as="geometry">
            <Array as="points">
              <mxPoint x="-2317" y="850" />
              <mxPoint x="-2157" y="850" />
              <mxPoint x="-2157" y="815" />
            </Array>
            <mxPoint x="-2330" y="830" as="sourcePoint" />
          </mxGeometry>
        </mxCell>
        <mxCell id="E67KO1QZ1ISF3svEd59q-8" value="&lt;font face=&quot;Consolas&quot;&gt;&lt;font color=&quot;#10c997&quot;&gt;&lt;span style=&quot;font-size: 17px&quot;&gt;vec&amp;lt;VkBuffer&amp;gt;&lt;/span&gt;&lt;/font&gt;&lt;br&gt;&lt;font color=&quot;#1a1a1a&quot;&gt;&lt;span style=&quot;font-size: 17px&quot;&gt;uniformBuffers&lt;/span&gt;&lt;/font&gt;&lt;br&gt;&lt;/font&gt;" style="rounded=1;whiteSpace=wrap;html=1;" vertex="1" parent="1">
          <mxGeometry x="-2430" y="765" width="150" height="50" as="geometry" />
        </mxCell>
        <mxCell id="E67KO1QZ1ISF3svEd59q-17" style="edgeStyle=orthogonalEdgeStyle;rounded=1;orthogonalLoop=1;jettySize=auto;html=1;exitX=0.75;exitY=1;exitDx=0;exitDy=0;entryX=1;entryY=0.5;entryDx=0;entryDy=0;strokeColor=#0069D4;" edge="1" parent="1" source="E67KO1QZ1ISF3svEd59q-9" target="E67KO1QZ1ISF3svEd59q-15">
          <mxGeometry relative="1" as="geometry" />
        </mxCell>
        <mxCell id="E67KO1QZ1ISF3svEd59q-41" style="edgeStyle=orthogonalEdgeStyle;rounded=0;orthogonalLoop=1;jettySize=auto;html=1;exitX=0.25;exitY=1;exitDx=0;exitDy=0;entryX=0.25;entryY=1;entryDx=0;entryDy=0;shape=link;strokeColor=#9E5321;" edge="1" parent="1" source="E67KO1QZ1ISF3svEd59q-8" target="E67KO1QZ1ISF3svEd59q-19">
          <mxGeometry relative="1" as="geometry">
            <Array as="points">
              <mxPoint x="-2392" y="1040" />
              <mxPoint x="-1967" y="1040" />
            </Array>
          </mxGeometry>
        </mxCell>
        <mxCell id="E67KO1QZ1ISF3svEd59q-9" value="&lt;font color=&quot;#10c997&quot; style=&quot;font-family: &amp;#34;consolas&amp;#34;&quot;&gt;&lt;span style=&quot;font-size: 17px&quot;&gt;vec&amp;lt;VkDeviceMemory&amp;gt;&lt;/span&gt;&lt;/font&gt;&lt;br style=&quot;font-family: &amp;#34;consolas&amp;#34;&quot;&gt;&lt;font color=&quot;#1a1a1a&quot; face=&quot;consolas&quot;&gt;&lt;span style=&quot;font-size: 17px&quot;&gt;uniformBuffersMemory&lt;/span&gt;&lt;/font&gt;" style="rounded=1;whiteSpace=wrap;html=1;" vertex="1" parent="1">
          <mxGeometry x="-2260" y="765" width="205" height="50" as="geometry" />
        </mxCell>
        <mxCell id="E67KO1QZ1ISF3svEd59q-11" value="&lt;font color=&quot;#cfcf00&quot; face=&quot;Consolas&quot;&gt;&lt;span style=&quot;font-size: 11px&quot;&gt;vkBindBufferMemory&lt;/span&gt;&lt;/font&gt;" style="edgeLabel;html=1;align=center;verticalAlign=middle;resizable=0;points=[];" vertex="1" connectable="0" parent="1">
          <mxGeometry x="-2210" y="780" as="geometry">
            <mxPoint x="-26" y="58" as="offset" />
          </mxGeometry>
        </mxCell>
        <mxCell id="E67KO1QZ1ISF3svEd59q-14" value="&lt;font color=&quot;#cfcf00&quot; face=&quot;Consolas&quot;&gt;&lt;span style=&quot;font-size: 11px&quot;&gt;vkAllocateMemory&lt;/span&gt;&lt;/font&gt;" style="edgeLabel;html=1;align=center;verticalAlign=middle;resizable=0;points=[];" vertex="1" connectable="0" parent="1">
          <mxGeometry x="-2130" y="680" as="geometry">
            <mxPoint x="-33" y="50" as="offset" />
          </mxGeometry>
        </mxCell>
        <mxCell id="E67KO1QZ1ISF3svEd59q-15" value="&lt;font face=&quot;consolas&quot; color=&quot;#cc0066&quot;&gt;&lt;span style=&quot;font-size: 17px&quot;&gt;updateUniformBuffer&lt;/span&gt;&lt;/font&gt;" style="rounded=1;whiteSpace=wrap;html=1;" vertex="1" parent="1">
          <mxGeometry x="-3752.2200000000003" y="1420" width="197.44" height="40" as="geometry" />
        </mxCell>
        <mxCell id="E67KO1QZ1ISF3svEd59q-32" style="edgeStyle=orthogonalEdgeStyle;rounded=1;orthogonalLoop=1;jettySize=auto;html=1;exitX=0.5;exitY=1;exitDx=0;exitDy=0;entryX=0.5;entryY=0;entryDx=0;entryDy=0;strokeColor=#000000;" edge="1" parent="1" source="E67KO1QZ1ISF3svEd59q-18" target="E67KO1QZ1ISF3svEd59q-19">
          <mxGeometry relative="1" as="geometry" />
        </mxCell>
        <mxCell id="E67KO1QZ1ISF3svEd59q-18" value="&lt;font color=&quot;#10c997&quot; face=&quot;consolas&quot;&gt;&lt;span style=&quot;font-size: 17px&quot;&gt;VkDescriptorPool&lt;/span&gt;&lt;/font&gt;&lt;br style=&quot;font-family: &amp;#34;consolas&amp;#34;&quot;&gt;&lt;font color=&quot;#1a1a1a&quot; face=&quot;consolas&quot;&gt;&lt;span style=&quot;font-size: 17px&quot;&gt;descriptorPool&lt;/span&gt;&lt;/font&gt;" style="rounded=1;whiteSpace=wrap;html=1;" vertex="1" parent="1">
          <mxGeometry x="-2000" y="660" width="170" height="50" as="geometry" />
        </mxCell>
        <mxCell id="E67KO1QZ1ISF3svEd59q-42" style="edgeStyle=orthogonalEdgeStyle;rounded=1;orthogonalLoop=1;jettySize=auto;html=1;exitX=0.5;exitY=1;exitDx=0;exitDy=0;entryX=1;entryY=0.5;entryDx=0;entryDy=0;strokeColor=#0069D4;" edge="1" parent="1" source="E67KO1QZ1ISF3svEd59q-19" target="E67KO1QZ1ISF3svEd59q-27">
          <mxGeometry relative="1" as="geometry">
            <Array as="points">
              <mxPoint x="-1915" y="1740" />
              <mxPoint x="-3930" y="1740" />
              <mxPoint x="-3930" y="1370" />
            </Array>
          </mxGeometry>
        </mxCell>
        <mxCell id="E67KO1QZ1ISF3svEd59q-19" value="&lt;font color=&quot;#10c997&quot; face=&quot;consolas&quot;&gt;&lt;span style=&quot;font-size: 17px&quot;&gt;vec&amp;lt;VkDescriptorSet&amp;gt;&lt;/span&gt;&lt;/font&gt;&lt;br style=&quot;font-family: &amp;#34;consolas&amp;#34;&quot;&gt;&lt;font color=&quot;#1a1a1a&quot; face=&quot;consolas&quot;&gt;&lt;span style=&quot;font-size: 17px&quot;&gt;descriptorSets&lt;/span&gt;&lt;/font&gt;" style="rounded=1;whiteSpace=wrap;html=1;" vertex="1" parent="1">
          <mxGeometry x="-2020" y="955" width="210" height="50" as="geometry" />
        </mxCell>
        <mxCell id="E67KO1QZ1ISF3svEd59q-22" style="edgeStyle=orthogonalEdgeStyle;rounded=1;orthogonalLoop=1;jettySize=auto;html=1;exitX=1;exitY=0.5;exitDx=0;exitDy=0;entryX=0.5;entryY=0;entryDx=0;entryDy=0;" edge="1" parent="1" source="E67KO1QZ1ISF3svEd59q-20" target="E67KO1QZ1ISF3svEd59q-8">
          <mxGeometry relative="1" as="geometry">
            <mxPoint x="-2355" y="760" as="targetPoint" />
            <Array as="points">
              <mxPoint x="-3390" y="790" />
              <mxPoint x="-3390" y="680" />
              <mxPoint x="-2355" y="680" />
            </Array>
          </mxGeometry>
        </mxCell>
        <mxCell id="E67KO1QZ1ISF3svEd59q-24" style="edgeStyle=orthogonalEdgeStyle;rounded=1;orthogonalLoop=1;jettySize=auto;html=1;exitX=1;exitY=0.5;exitDx=0;exitDy=0;entryX=0.5;entryY=0;entryDx=0;entryDy=0;strokeColor=#000000;" edge="1" parent="1" source="E67KO1QZ1ISF3svEd59q-20" target="E67KO1QZ1ISF3svEd59q-9">
          <mxGeometry relative="1" as="geometry">
            <Array as="points">
              <mxPoint x="-3390" y="790" />
              <mxPoint x="-3390" y="630" />
              <mxPoint x="-2157" y="630" />
            </Array>
          </mxGeometry>
        </mxCell>
        <mxCell id="E67KO1QZ1ISF3svEd59q-35" style="edgeStyle=orthogonalEdgeStyle;rounded=1;orthogonalLoop=1;jettySize=auto;html=1;exitX=1;exitY=0.5;exitDx=0;exitDy=0;entryX=0.5;entryY=0;entryDx=0;entryDy=0;strokeColor=#000000;" edge="1" parent="1" source="E67KO1QZ1ISF3svEd59q-20" target="E67KO1QZ1ISF3svEd59q-18">
          <mxGeometry relative="1" as="geometry">
            <Array as="points">
              <mxPoint x="-3390" y="790" />
              <mxPoint x="-3390" y="580" />
              <mxPoint x="-1915" y="580" />
            </Array>
          </mxGeometry>
        </mxCell>
        <mxCell id="E67KO1QZ1ISF3svEd59q-37" style="edgeStyle=orthogonalEdgeStyle;rounded=1;orthogonalLoop=1;jettySize=auto;html=1;exitX=1;exitY=0.5;exitDx=0;exitDy=0;entryX=0.5;entryY=0;entryDx=0;entryDy=0;strokeColor=#000000;" edge="1" parent="1" source="E67KO1QZ1ISF3svEd59q-20" target="E67KO1QZ1ISF3svEd59q-19">
          <mxGeometry relative="1" as="geometry">
            <Array as="points">
              <mxPoint x="-3390" y="790" />
              <mxPoint x="-3390" y="880" />
              <mxPoint x="-1915" y="880" />
            </Array>
          </mxGeometry>
        </mxCell>
        <mxCell id="E67KO1QZ1ISF3svEd59q-20" value="&lt;span style=&quot;background-color: rgb(255 , 255 , 255)&quot;&gt;&lt;font face=&quot;Consolas&quot; style=&quot;font-size: 15px&quot; color=&quot;#00d4d4&quot;&gt;size()&lt;/font&gt;&lt;/span&gt;" style="ellipse;whiteSpace=wrap;html=1;" vertex="1" parent="1">
          <mxGeometry x="-3541" y="768.75" width="68.5" height="42.5" as="geometry" />
        </mxCell>
        <mxCell id="E67KO1QZ1ISF3svEd59q-10" value="&lt;font color=&quot;#cfcf00&quot; face=&quot;Consolas&quot;&gt;&lt;span style=&quot;font-size: 11px&quot;&gt;vkCreateBuffer&lt;/span&gt;&lt;/font&gt;" style="edgeLabel;html=1;align=center;verticalAlign=middle;resizable=0;points=[];" vertex="1" connectable="0" parent="1">
          <mxGeometry x="-2360" y="740" as="geometry">
            <mxPoint x="8" y="-8" as="offset" />
          </mxGeometry>
        </mxCell>
        <mxCell id="E67KO1QZ1ISF3svEd59q-23" value="&lt;font color=&quot;#cfcf00&quot; face=&quot;Consolas&quot;&gt;&lt;span style=&quot;font-size: 11px&quot;&gt;resize()&lt;/span&gt;&lt;/font&gt;" style="edgeLabel;html=1;align=center;verticalAlign=middle;resizable=0;points=[];rotation=0;" vertex="1" connectable="0" parent="1">
          <mxGeometry x="-2370" y="675" as="geometry">
            <mxPoint x="-23" y="-5" as="offset" />
          </mxGeometry>
        </mxCell>
        <mxCell id="E67KO1QZ1ISF3svEd59q-25" value="&lt;font color=&quot;#cfcf00&quot; face=&quot;Consolas&quot;&gt;&lt;span style=&quot;font-size: 11px&quot;&gt;resize()&lt;/span&gt;&lt;/font&gt;" style="edgeLabel;html=1;align=center;verticalAlign=middle;resizable=0;points=[];rotation=0;" vertex="1" connectable="0" parent="1">
          <mxGeometry x="-2210" y="610" as="geometry">
            <mxPoint x="13" y="9" as="offset" />
          </mxGeometry>
        </mxCell>
        <mxCell id="E67KO1QZ1ISF3svEd59q-26" value="&lt;font color=&quot;#cfcf00&quot; face=&quot;Consolas&quot;&gt;&lt;span style=&quot;font-size: 11px&quot;&gt;vkCreateDescriptorPool&lt;/span&gt;&lt;/font&gt;" style="edgeLabel;html=1;align=center;verticalAlign=middle;resizable=0;points=[];" vertex="1" connectable="0" parent="1">
          <mxGeometry x="-1880" y="580" as="geometry">
            <mxPoint x="-33" y="50" as="offset" />
          </mxGeometry>
        </mxCell>
        <mxCell id="E67KO1QZ1ISF3svEd59q-27" value="&lt;font color=&quot;#cfcf00&quot; face=&quot;consolas&quot;&gt;&lt;span style=&quot;font-size: 17px&quot;&gt;vkCmdBindDescriptorSets&lt;/span&gt;&lt;/font&gt;" style="rounded=1;whiteSpace=wrap;html=1;" vertex="1" parent="1">
          <mxGeometry x="-4332.25" y="1350" width="240" height="40" as="geometry" />
        </mxCell>
        <mxCell id="E67KO1QZ1ISF3svEd59q-2" value="&lt;font color=&quot;#cfcf00&quot; face=&quot;Consolas&quot;&gt;&lt;span style=&quot;font-size: 11px&quot;&gt;vkCreateDescriptorSetLayout&lt;/span&gt;&lt;/font&gt;" style="edgeLabel;html=1;align=center;verticalAlign=middle;resizable=0;points=[];" vertex="1" connectable="0" parent="1">
          <mxGeometry x="-1630" y="580" as="geometry">
            <mxPoint x="-33" y="50" as="offset" />
          </mxGeometry>
        </mxCell>
        <mxCell id="E67KO1QZ1ISF3svEd59q-36" value="&lt;font color=&quot;#cfcf00&quot; face=&quot;Consolas&quot;&gt;&lt;span style=&quot;font-size: 11px&quot;&gt;vkAllocateDescriptorSets&lt;/span&gt;&lt;/font&gt;" style="edgeLabel;html=1;align=center;verticalAlign=middle;resizable=0;points=[];spacing=0;" vertex="1" connectable="0" parent="1">
          <mxGeometry x="-1915" y="930" as="geometry">
            <mxPoint y="-4" as="offset" />
          </mxGeometry>
        </mxCell>
        <mxCell id="E67KO1QZ1ISF3svEd59q-38" value="&lt;font color=&quot;#cfcf00&quot; face=&quot;Consolas&quot;&gt;&lt;span style=&quot;font-size: 11px&quot;&gt;resize()&lt;/span&gt;&lt;/font&gt;" style="edgeLabel;html=1;align=center;verticalAlign=middle;resizable=0;points=[];rotation=0;" vertex="1" connectable="0" parent="1">
          <mxGeometry x="-2190" y="620" as="geometry">
            <mxPoint x="241" y="250" as="offset" />
          </mxGeometry>
        </mxCell>
        <mxCell id="E67KO1QZ1ISF3svEd59q-43" value="&lt;font color=&quot;#cfcf00&quot; face=&quot;Consolas&quot;&gt;&lt;span style=&quot;font-size: 11px&quot;&gt;vkUpdateDescriptorSets&lt;/span&gt;&lt;/font&gt;" style="edgeLabel;html=1;align=center;verticalAlign=middle;resizable=0;points=[];" vertex="1" connectable="0" parent="1">
          <mxGeometry x="-2210" y="965" as="geometry">
            <mxPoint x="-26" y="58" as="offset" />
          </mxGeometry>
        </mxCell>
      </root>
    </mxGraphModel>
  </diagram>
</mxfile>
